<svg width="42" height="42" viewBox="0 0 42 42" fill="none" xmlns="http://www.w3.org/2000/svg">
<path d="M16.9501 4.32499C17.6351 5.00999 18.32 5.69496 19.0051 6.38003C20.6401 8.01505 22.2751 9.65007 23.9101 11.285C25.9001 13.275 27.8851 15.26 29.8751 17.25C31.5901 18.965 33.3001 20.675 35.0151 22.39C35.5801 22.955 36.145 23.52 36.7151 24.09C36.9801 24.355 37.2351 24.64 37.5151 24.89C37.5251 24.9 37.5401 24.915 37.5501 24.925C37.6001 24.53 37.6501 24.14 37.7001 23.745C35.5801 24.77 33.4601 25.79 31.3401 26.815C29.9951 27.465 28.6501 28.11 27.3102 28.76C24.8101 29.965 22.3101 31.175 19.8102 32.38C17.8252 33.34 15.8402 34.295 13.8552 35.255C11.9301 36.185 10.0002 37.115 8.07514 38.045C7.99514 38.085 7.91514 38.12 7.83514 38.16C8.14014 38.2 8.44014 38.24 8.74514 38.275C7.24013 36.77 5.73513 35.265 4.23012 33.76C4.02012 33.55 3.81012 33.34 3.59512 33.125C3.63512 33.43 3.67512 33.73 3.71012 34.035C4.19012 33.04 4.67012 32.045 5.15012 31.05C6.29508 28.675 7.44013 26.3 8.59012 23.925C9.98011 21.045 11.3701 18.17 12.7601 15.29C13.9601 12.805 15.1601 10.315 16.3601 7.83002C16.9401 6.62499 17.5351 5.42499 18.1051 4.21502C18.1151 4.20002 18.1201 4.18002 18.1301 4.16502C18.3051 3.80002 18.2301 3.35502 17.8601 3.14001C17.5301 2.95002 17.0101 3.04501 16.8351 3.41001C16.3551 4.40503 15.8751 5.40005 15.3951 6.39497C14.2501 8.77001 13.1051 11.145 11.9551 13.52C10.5651 16.4 9.17511 19.275 7.78512 22.155C6.58512 24.64 5.38512 27.13 4.18512 29.615C3.60512 30.82 3.00515 32.02 2.44012 33.23C2.43012 33.245 2.42512 33.265 2.41512 33.28C2.27012 33.585 2.28512 33.94 2.53012 34.19L7.68011 39.34C7.93011 39.59 8.28511 39.605 8.5901 39.455C10.5701 38.5 12.5551 37.54 14.5351 36.5849C16.2001 35.7799 17.8651 34.975 19.5351 34.1699C22.1751 32.895 24.8201 31.6199 27.4601 30.3449C28.6901 29.7499 29.9251 29.1549 31.1551 28.56C33.5401 27.41 35.9201 26.26 38.3051 25.11C38.3551 25.085 38.4101 25.06 38.4601 25.035C38.9001 24.82 38.9301 24.175 38.6101 23.855C37.9251 23.17 37.2402 22.4851 36.5551 21.8C34.9201 20.165 33.285 18.53 31.6501 16.895C29.6601 14.905 27.6751 12.92 25.6851 10.9301C23.9701 9.21504 22.2601 7.50505 20.5451 5.79003C19.7151 4.96004 18.9001 4.10007 18.0451 3.29001C18.0351 3.28001 18.0201 3.26501 18.0101 3.25501C17.7251 2.97001 17.2351 2.97001 16.9501 3.25501C16.6651 3.55501 16.6651 4.04001 16.9501 4.325L16.9501 4.32499Z" fill="#0C446A"/>
<path d="M0.825079 32.4898C1.79011 33.4549 2.75504 34.4198 3.71504 35.3798C5.25004 36.9148 6.79006 38.4548 8.32506 39.9898C8.68005 40.3448 9.03005 40.6948 9.38508 41.0498C9.67008 41.3348 10.1601 41.3348 10.4451 41.0498C10.7301 40.7648 10.7301 40.2748 10.4451 39.9898C9.48007 39.0248 8.51514 38.0598 7.55514 37.0998C6.02014 35.5649 4.48012 34.0248 2.94513 32.4898C2.59013 32.1348 2.24013 31.7848 1.8851 31.4298C1.6001 31.1448 1.1101 31.1448 0.825079 31.4298C0.540078 31.7148 0.540078 32.2048 0.825079 32.4898Z" fill="#0C446A"/>
<path d="M15.4411 2.81503C16.2261 3.60003 17.0111 4.38504 17.7962 5.17005C19.6811 7.05503 21.5612 8.93508 23.4462 10.8201L30.2812 17.6551C32.2412 19.6151 34.1962 21.5701 36.1562 23.5301C37.1112 24.4851 38.0462 25.4701 39.0262 26.4001C39.0412 26.4151 39.0512 26.4251 39.0662 26.4401C39.3512 26.7251 39.8412 26.7251 40.1263 26.4401C40.4113 26.1551 40.4113 25.6651 40.1263 25.3801C39.3413 24.5951 38.5562 23.8101 37.7712 23.0251C35.8863 21.1401 34.0062 19.2601 32.1212 17.3751L25.2862 10.5401C23.3262 8.58002 21.3712 6.62509 19.4112 4.66505C18.4562 3.71007 17.5212 2.72502 16.5412 1.79501C16.5262 1.78001 16.5162 1.77001 16.5012 1.75501C16.2162 1.47001 15.7262 1.47001 15.4411 1.75501C15.1511 2.04001 15.1511 2.52501 15.4411 2.81503V2.81503Z" fill="#0C446A"/>
<path d="M26.8559 8.68008C27.0309 8.68008 27.2059 8.68508 27.3809 8.70008C27.4709 8.70508 27.5659 8.71508 27.6559 8.72508C27.6909 8.73008 27.7259 8.73508 27.7559 8.73508C27.5859 8.71508 27.8109 8.74508 27.8259 8.75008C28.1709 8.80508 28.5109 8.89007 28.841 8.99508C29.001 9.04508 29.156 9.10508 29.311 9.16508C29.336 9.17508 29.441 9.22508 29.316 9.16508C29.356 9.18508 29.396 9.20008 29.436 9.22008C29.516 9.25508 29.596 9.29508 29.676 9.33508C29.986 9.49508 30.291 9.67508 30.576 9.87508C30.636 9.92008 30.701 9.96508 30.761 10.0101C30.851 10.0801 30.676 9.94008 30.766 10.0151C30.791 10.0351 30.816 10.0551 30.841 10.0751C30.986 10.1951 31.121 10.3151 31.256 10.4451C31.371 10.5601 31.486 10.6751 31.596 10.7951C31.656 10.8601 31.711 10.9251 31.766 10.9901C31.796 11.0251 31.941 11.2101 31.851 11.0951C32.066 11.3701 32.256 11.6651 32.426 11.9701C32.501 12.1051 32.571 12.2401 32.636 12.3801C32.651 12.4101 32.756 12.6451 32.696 12.5051C32.736 12.5951 32.771 12.6901 32.806 12.7851C32.941 13.1551 33.046 13.5301 33.116 13.915C33.126 13.96 33.131 14.005 33.141 14.05C33.146 14.07 33.171 14.25 33.156 14.155C33.146 14.07 33.161 14.18 33.161 14.19C33.171 14.26 33.176 14.325 33.181 14.395C33.201 14.605 33.206 14.81 33.206 15.02C33.206 15.41 33.551 15.79 33.956 15.77C34.361 15.75 34.706 15.44 34.706 15.02C34.691 11.7301 32.606 8.79001 29.5309 7.64505C28.6809 7.33005 27.7659 7.18005 26.866 7.17505C26.476 7.17505 26.096 7.52004 26.116 7.92505C26.121 8.34005 26.436 8.68004 26.856 8.68004L26.8559 8.68008Z" fill="#0C446A"/>
<path d="M26.8558 2.04507C27.2158 2.04507 27.5808 2.06006 27.9408 2.08507C28.1158 2.10006 28.2858 2.11507 28.4558 2.13507C28.5008 2.14007 28.5458 2.14506 28.5908 2.15007C28.6008 2.15007 28.7158 2.16506 28.6258 2.15507C28.5308 2.14007 28.6758 2.16507 28.6958 2.16507C28.7508 2.17507 28.8108 2.18006 28.8658 2.19007C29.5558 2.30006 30.2357 2.46506 30.9008 2.68507C31.2208 2.79007 31.5308 2.90506 31.8408 3.03006C31.9758 3.08506 31.8708 3.04506 31.8458 3.03006C31.8858 3.04506 31.9258 3.06506 31.9658 3.08506C32.0358 3.11507 32.1057 3.15006 32.1758 3.18007C32.3358 3.25507 32.4958 3.33007 32.6508 3.41007C33.2558 3.71506 33.8408 4.07007 34.3958 4.46506C34.5308 4.56006 34.6608 4.65506 34.7908 4.75506C34.6808 4.67006 34.8408 4.79506 34.8708 4.82006C34.9458 4.88006 35.0258 4.94506 35.1008 5.00506C35.3508 5.21506 35.5958 5.43506 35.8308 5.66006C36.0758 5.89506 36.3108 6.14006 36.5358 6.39007C36.6457 6.51007 36.7508 6.63507 36.8558 6.76007C36.9058 6.82007 36.9508 6.88007 37.0008 6.93507C37.0258 6.96507 37.1957 7.18507 37.1057 7.06507C37.5157 7.60507 37.8907 8.17511 38.2207 8.77003C38.3807 9.06003 38.5307 9.35503 38.6657 9.65503C38.7007 9.73503 38.7407 9.81503 38.7757 9.89503C38.7907 9.92503 38.8007 9.95503 38.8157 9.98503C38.8607 10.09 38.7757 9.88004 38.8157 9.99003C38.8807 10.155 38.9457 10.32 39.0107 10.485C39.2757 11.215 39.4807 11.9651 39.6207 12.725C39.6407 12.825 39.6557 12.925 39.6707 13.03C39.6757 13.065 39.6807 13.1 39.6857 13.13C39.6857 13.125 39.7157 13.33 39.7007 13.235C39.6857 13.14 39.7057 13.285 39.7107 13.305C39.7157 13.36 39.7257 13.42 39.7307 13.475C39.7407 13.565 39.7507 13.66 39.7607 13.75C39.8007 14.17 39.8157 14.59 39.8157 15.0051C39.8157 15.3951 40.1607 15.7751 40.5657 15.7551C40.9707 15.7351 41.3157 15.4251 41.3157 15.0051C41.3107 12.04 40.3958 9.08508 38.6707 6.66505C36.9557 4.26002 34.5657 2.42002 31.7907 1.39502C30.2107 0.810022 28.5157 0.525021 26.8357 0.52002C26.4457 0.52002 26.0657 0.865016 26.0857 1.27002C26.1207 1.70001 26.4357 2.04002 26.8557 2.04502L26.8558 2.04507Z" fill="#0C446A"/>
<path d="M27.8951 29.3804C27.9351 29.4654 27.9801 29.5504 28.0201 29.6354C28.0401 29.6804 28.0601 29.7204 28.0801 29.7654C28.0301 29.6504 28.0801 29.7604 28.0851 29.7804C28.1551 29.9654 28.2251 30.1554 28.2851 30.3454C28.4001 30.7154 28.4851 31.0954 28.5351 31.4804C28.5151 31.3404 28.5451 31.5854 28.5501 31.6304C28.5601 31.7254 28.5651 31.8204 28.5701 31.9104C28.5801 32.1104 28.5851 32.3104 28.5801 32.5154C28.5751 32.7054 28.5651 32.8954 28.5501 33.0854C28.5451 33.1354 28.5401 33.1804 28.5351 33.2304C28.5351 33.2504 28.5151 33.4004 28.5251 33.3104C28.5351 33.2204 28.5151 33.3704 28.5151 33.3904C28.5051 33.4504 28.4951 33.5104 28.4851 33.5704C28.4151 33.9654 28.3151 34.3504 28.1851 34.7304C28.1551 34.8254 28.1201 34.9154 28.0851 35.0054C28.0701 35.0504 28.0501 35.0954 28.0301 35.1404C28.0251 35.1554 27.9651 35.2954 28.0001 35.2204C28.0301 35.1454 27.9701 35.2854 27.9651 35.3004C27.9451 35.3454 27.9251 35.3904 27.9051 35.4354C27.8551 35.5354 27.8101 35.6354 27.7551 35.7354C27.5651 36.1054 27.3451 36.4604 27.1001 36.7954C27.0701 36.8354 27.0401 36.8804 27.0101 36.9204C26.9351 37.0204 27.0651 36.8504 26.9851 36.9504C26.9201 37.0304 26.8551 37.1104 26.7851 37.1904C26.6401 37.3604 26.4901 37.5254 26.3301 37.6804C26.1901 37.8204 26.0401 37.9604 25.8901 38.0904C25.8151 38.1554 25.7401 38.2204 25.6601 38.2804C25.6201 38.3104 25.5851 38.3404 25.5451 38.3704C25.6251 38.3104 25.5251 38.3854 25.4901 38.4104C25.1701 38.6454 24.8301 38.8604 24.48 39.0504C24.315 39.1404 24.145 39.2254 23.97 39.3054C23.925 39.3254 23.885 39.3454 23.84 39.3604C23.87 39.3454 23.96 39.3104 23.825 39.3654C23.725 39.4054 23.63 39.4404 23.53 39.4804C23.17 39.6104 22.8 39.7154 22.425 39.7904C22.335 39.8104 22.245 39.8254 22.155 39.8404C22.11 39.8504 21.865 39.8854 22.015 39.8654C21.835 39.8904 21.655 39.9054 21.47 39.9154C21.0851 39.9404 20.7 39.9354 20.3201 39.9004L20.0501 39.8704C20.2001 39.8904 19.9951 39.8604 19.9501 39.8554C19.7601 39.8254 19.5751 39.7854 19.3901 39.7404C19.2151 39.6954 19.0451 39.6504 18.8701 39.5954C18.7851 39.5654 18.7001 39.5404 18.6151 39.5054C18.5751 39.4904 18.5301 39.4754 18.4901 39.4554C18.4801 39.4504 18.2751 39.3654 18.4201 39.4304C18.0451 39.2704 17.6851 39.0754 17.345 38.8504C17.25 38.7854 17.155 38.7204 17.06 38.6554C17.025 38.6304 16.985 38.6004 16.95 38.5754C17.035 38.6404 16.95 38.5754 16.91 38.5404C16.745 38.4054 16.59 38.2704 16.44 38.1204C15.745 37.4454 15.2001 36.5905 14.885 35.7354C14.77 36.0154 14.655 36.3004 14.54 36.5804C16.1601 35.7954 17.7801 35.0154 19.405 34.2304C21.9851 32.9855 24.57 31.7354 27.15 30.4905C27.74 30.2055 28.33 29.9205 28.92 29.6355C29.285 29.4605 29.38 28.9405 29.19 28.6105C28.97 28.2354 28.53 28.1654 28.165 28.3405C26.545 29.1254 24.925 29.9054 23.3 30.6904C20.72 31.9455 18.135 33.1954 15.555 34.4405C14.965 34.7255 14.375 35.0105 13.785 35.2955C13.51 35.4305 13.335 35.8505 13.44 36.1405C14.105 37.9705 15.39 39.5405 17.115 40.4655C18.605 41.2655 20.34 41.5805 22.015 41.3705C25.705 40.9055 28.88 38.1555 29.805 34.5306C30.31 32.5506 30.105 30.4506 29.19 28.6205C29.01 28.2605 28.495 28.1555 28.165 28.3505C27.795 28.5705 27.71 29.0155 27.895 29.3806L27.8951 29.3804Z" fill="#0C446A"/>
</svg>
