<svg width="44" height="36" viewBox="0 0 44 36" fill="none" xmlns="http://www.w3.org/2000/svg">
<path d="M2.38009 34.3074C2.5151 34.3124 2.31509 34.2874 2.43509 34.3374C2.40009 34.3224 2.35509 34.2974 2.3251 34.2724C2.3851 34.3224 2.3551 34.2824 2.3551 34.2824C2.3551 34.2874 2.33009 34.2474 2.3801 34.3074C2.33009 34.2474 2.3751 34.2724 2.3651 34.2774C2.3701 34.2924 2.3751 34.2974 2.3801 34.3074C2.3751 34.2874 2.37009 34.2624 2.3651 34.2424L2.3801 34.3074V34.2874C2.3851 34.2374 2.3801 34.1874 2.3801 34.1374V33.4474V30.7274V26.6424V21.7073V16.4373V11.3223V6.92233V3.7323V2.74734C2.3801 2.59234 2.4051 2.41233 2.3801 2.25733V2.22233V2.21733C2.3801 2.28733 2.3551 2.29233 2.3801 2.21733C2.3401 2.34233 2.3551 2.24733 2.3801 2.21733C2.3001 2.31234 2.3801 2.21733 2.3801 2.21733C2.3751 2.21233 2.4801 2.13733 2.4051 2.19733C2.3301 2.25233 2.4351 2.18733 2.4401 2.18733C2.4401 2.18233 2.3301 2.24733 2.4151 2.21233C2.4601 2.19233 2.4701 2.22233 2.3851 2.21733H2.3901H2.42009C2.5451 2.24233 2.69509 2.21733 2.82009 2.21733H4.82512H8.15513H12.4652H17.4201H22.6801H27.9051H32.7751H36.9051H39.9801H41.6652C41.7202 2.21733 41.7752 2.22233 41.8302 2.21733H41.8702C41.9102 2.21233 41.7502 2.17233 41.8802 2.21733C41.7552 2.17233 41.9352 2.25233 41.8352 2.17233C41.8752 2.20233 41.9652 2.31233 41.8802 2.21733C41.9602 2.31234 41.8952 2.26233 41.8802 2.21733C41.8902 2.25233 41.8752 2.31234 41.8852 2.24733C41.8752 2.31233 41.8802 2.20233 41.8802 2.21733V2.24233C41.8752 2.29233 41.8802 2.34733 41.8802 2.40233V4.28229V7.7723V12.3623V17.5323V22.7723V27.5723V31.4123V33.7823C41.8802 33.9323 41.8502 34.1123 41.8802 34.2573V34.2923C41.8802 34.3123 41.8902 34.2323 41.8952 34.2323C41.8952 34.2423 41.8902 34.2523 41.8902 34.2623C41.8802 34.3023 41.8802 34.3073 41.9002 34.2673C41.8902 34.2623 41.9352 34.2323 41.8852 34.2973C41.9102 34.2673 41.9202 34.2223 41.9052 34.2723C41.8752 34.3023 41.8752 34.3023 41.9102 34.2773C41.9552 34.2473 41.9452 34.2523 41.8852 34.2923C41.8852 34.2973 41.7702 34.3473 41.8552 34.3073C41.9402 34.2673 41.8202 34.3123 41.8202 34.3073L41.8852 34.2923H41.8802H41.8452C41.7152 34.2723 41.5602 34.2923 41.4252 34.2923H40.5952H37.8602H33.9801H29.2901H24.1351H18.8501H13.7801H9.26004H5.63005H3.22502C2.93502 34.3073 2.66002 34.3073 2.38002 34.3073C1.99002 34.3073 1.61002 34.6523 1.63002 35.0573C1.65003 35.4623 1.96002 35.8073 2.38002 35.8073H3.29002H5.79498H9.52499H14.165H19.315H24.675H29.845H34.52H38.305H40.8749C41.2099 35.8073 41.5449 35.8223 41.8799 35.8073C42.7449 35.7773 43.375 35.1073 43.3849 34.2473V33.7173V31.2123V27.2474V22.3473V17.0173V11.8323V7.28228V3.93728C43.3849 3.39228 43.3899 2.84727 43.3849 2.29723C43.3799 1.43224 42.7599 0.752273 41.8849 0.722193C41.7999 0.717193 41.7149 0.722193 41.6349 0.722193H39.85H36.67H32.435H27.475H22.1851H16.865H11.92H7.67005H4.45505H2.65501C2.56501 0.722193 2.475 0.717193 2.38501 0.722193C1.51501 0.757193 0.889972 1.42719 0.885035 2.2922C0.880035 2.82721 0.885035 3.35716 0.885035 3.8922V7.22724V11.7423V16.9173V22.2523V27.1623V31.1623V33.6873V34.2273C0.890035 35.0973 1.50503 35.7673 2.38501 35.8073C2.77501 35.8273 3.15501 35.4473 3.13501 35.0573C3.11001 34.6373 2.80001 34.3273 2.38001 34.3073L2.38009 34.3074Z" fill="#0C446A"/>
<path d="M1.63064 8.72759H2.72568H5.71567H10.1207H15.5206H21.4107H27.3556H32.9006H37.6056H40.9755C41.5056 8.72759 42.0405 8.73759 42.5756 8.72759H42.6455C43.0355 8.72759 43.4156 8.38259 43.3955 7.97759C43.3755 7.57259 43.0655 7.22759 42.6455 7.22759H41.5505H38.5605H34.1555H28.7555H22.8655H16.9206H11.3756H6.6706H3.30064C2.77063 7.22759 2.23568 7.21759 1.70064 7.22759H1.63064C1.24064 7.22759 0.860635 7.57259 0.880639 7.97759C0.900644 8.38259 1.21064 8.72759 1.63064 8.72759Z" fill="#0C446A"/>
<path d="M4.62539 4.72758V4.76258C4.63539 4.69758 4.64539 4.62757 4.65039 4.56258C4.65039 4.56758 4.64039 4.63258 4.63539 4.63258C4.65039 4.59258 4.66539 4.55258 4.68039 4.51758C4.76539 4.41758 4.78539 4.39258 4.74539 4.43258C4.72039 4.45758 4.73039 4.44758 4.78039 4.40758C4.81039 4.37758 4.84539 4.35758 4.88539 4.34758C5.01039 4.29758 4.90539 4.33258 4.87539 4.33758C4.94039 4.32758 5.01039 4.31758 5.07539 4.31258C5.05039 4.31758 5.02539 4.31758 5.00039 4.31258C5.06539 4.32258 5.13539 4.33258 5.20039 4.33758C5.19539 4.33758 5.13039 4.32758 5.13039 4.32258C5.17039 4.33758 5.21039 4.35258 5.24539 4.36758C5.34539 4.45258 5.37039 4.47258 5.33039 4.43258C5.30539 4.40758 5.31539 4.41758 5.35539 4.46758C5.38539 4.49758 5.40539 4.53258 5.41539 4.57258C5.46539 4.69758 5.43039 4.59258 5.42539 4.56258C5.43539 4.62758 5.44539 4.69758 5.45039 4.76258C5.44539 4.73758 5.44539 4.71258 5.45039 4.68758C5.44039 4.75258 5.43039 4.82258 5.42539 4.88758C5.42539 4.88258 5.43539 4.81758 5.44039 4.81758C5.42539 4.85758 5.41039 4.89758 5.39539 4.93257C5.31039 5.03258 5.29039 5.05757 5.33039 5.01757C5.35539 4.99257 5.34538 5.00258 5.29539 5.04258C5.26538 5.07258 5.23039 5.09258 5.19039 5.10258C5.06539 5.15258 5.17039 5.11757 5.20039 5.11258C5.13539 5.12257 5.06539 5.13258 5.00039 5.13758C5.02539 5.13258 5.05039 5.13258 5.07539 5.13758C5.01039 5.12757 4.94039 5.11758 4.87539 5.11258C4.88039 5.11258 4.94539 5.12258 4.94539 5.12758C4.90539 5.11258 4.86539 5.09758 4.83039 5.08258C4.73039 4.99758 4.70539 4.97758 4.74539 5.01757C4.77039 5.04257 4.76039 5.03257 4.72039 4.98258C4.69039 4.95258 4.67039 4.91757 4.66039 4.87758C4.61039 4.75258 4.64539 4.85758 4.65039 4.88758C4.64039 4.82258 4.63039 4.75257 4.62539 4.68758V4.72758C4.64539 5.11758 4.95539 5.49758 5.37539 5.47758C5.76538 5.46258 6.15039 5.14757 6.12538 4.72758C6.11038 4.43758 6.01539 4.16758 5.80538 3.96258C5.60538 3.76258 5.32538 3.64258 5.04038 3.64258C4.44038 3.64258 3.9704 4.13758 3.9554 4.72756C3.9404 5.31256 4.4504 5.79755 5.02036 5.80751C5.30036 5.81252 5.59536 5.70252 5.79036 5.50252C6.00537 5.28751 6.10536 5.02252 6.12036 4.72252C6.14036 4.33252 5.76036 3.95752 5.37037 3.97253C4.95036 3.99253 4.65037 4.30753 4.62537 4.72752L4.62539 4.72758Z" fill="#0C446A"/>
<path d="M10.9506 4.72758V4.76258C10.9606 4.69758 10.9706 4.62757 10.9756 4.56258C10.9756 4.56758 10.9656 4.63258 10.9606 4.63258C10.9756 4.59258 10.9906 4.55258 11.0056 4.51758C11.0906 4.41758 11.1106 4.39258 11.0706 4.43258C11.0456 4.45758 11.0556 4.44758 11.1056 4.40758C11.1356 4.37758 11.1706 4.35758 11.2106 4.34758C11.3356 4.29758 11.2306 4.33258 11.2006 4.33758C11.2656 4.32758 11.3356 4.31758 11.4006 4.31258C11.3756 4.31758 11.3506 4.31758 11.3256 4.31258C11.3906 4.32258 11.4606 4.33258 11.5256 4.33758C11.5206 4.33758 11.4556 4.32758 11.4556 4.32258C11.4956 4.33758 11.5356 4.35258 11.5706 4.36758C11.6706 4.45258 11.6956 4.47258 11.6556 4.43258C11.6306 4.40758 11.6406 4.41758 11.6806 4.46758C11.7106 4.49758 11.7306 4.53258 11.7406 4.57258C11.7906 4.69758 11.7556 4.59258 11.7506 4.56258C11.7606 4.62758 11.7706 4.69758 11.7756 4.76258C11.7706 4.73758 11.7706 4.71258 11.7756 4.68758C11.7656 4.75258 11.7556 4.82258 11.7506 4.88758C11.7506 4.88258 11.7606 4.81758 11.7656 4.81758C11.7506 4.85758 11.7356 4.89758 11.7206 4.93257C11.6356 5.03258 11.6156 5.05757 11.6556 5.01757C11.6806 4.99257 11.6706 5.00258 11.6206 5.04258C11.5906 5.07258 11.5556 5.09258 11.5156 5.10258C11.3906 5.15258 11.4956 5.11757 11.5256 5.11258C11.4606 5.12257 11.3906 5.13258 11.3256 5.13758C11.3506 5.13258 11.3756 5.13258 11.4006 5.13758C11.3356 5.12757 11.2656 5.11758 11.2006 5.11258C11.2056 5.11258 11.2706 5.12258 11.2706 5.12758C11.2306 5.11258 11.1906 5.09758 11.1556 5.08258C11.0556 4.99758 11.0306 4.97758 11.0706 5.01757C11.0956 5.04257 11.0856 5.03257 11.0456 4.98258C11.0156 4.95258 10.9956 4.91757 10.9856 4.87758C10.9356 4.75258 10.9706 4.85758 10.9756 4.88758C10.9656 4.82258 10.9556 4.75257 10.9506 4.68758V4.72758C10.9706 5.11758 11.2806 5.49758 11.7006 5.47758C12.0906 5.46258 12.4756 5.14757 12.4506 4.72758C12.4356 4.43758 12.3406 4.16758 12.1306 3.96258C11.9306 3.76258 11.6506 3.64258 11.3656 3.64258C10.7656 3.64258 10.2956 4.13758 10.2806 4.72756C10.2656 5.31256 10.7756 5.79755 11.3456 5.80751C11.6256 5.81252 11.9206 5.70252 12.1156 5.50252C12.3306 5.28751 12.4306 5.02252 12.4456 4.72252C12.4656 4.33252 12.0856 3.95752 11.6956 3.97253C11.2756 3.99253 10.9756 4.30753 10.9506 4.72752L10.9506 4.72758Z" fill="#0C446A"/>
<path d="M7.79141 4.72758V4.76258C7.80141 4.69758 7.81141 4.62757 7.81641 4.56258C7.81641 4.56758 7.8064 4.63258 7.80141 4.63258C7.81641 4.59258 7.8314 4.55258 7.84641 4.51758C7.93141 4.41758 7.9514 4.39258 7.91141 4.43258C7.8864 4.45758 7.89641 4.44758 7.94641 4.40758C7.97641 4.37758 8.01141 4.35758 8.0514 4.34758C8.1764 4.29758 8.0714 4.33258 8.0414 4.33758C8.1064 4.32758 8.1764 4.31758 8.2414 4.31258C8.2164 4.31758 8.1914 4.31758 8.1664 4.31258C8.2314 4.32258 8.30141 4.33258 8.3664 4.33758C8.3614 4.33758 8.2964 4.32758 8.2964 4.32258C8.3364 4.33758 8.3764 4.35258 8.4114 4.36758C8.51141 4.45258 8.5364 4.47258 8.4964 4.43258C8.4714 4.40758 8.4814 4.41758 8.5214 4.46758C8.5514 4.49758 8.5714 4.53258 8.5814 4.57258C8.6314 4.69758 8.5964 4.59258 8.5914 4.56258C8.6014 4.62758 8.6114 4.69758 8.6164 4.76258C8.6114 4.73758 8.6114 4.71258 8.6164 4.68758C8.6064 4.75258 8.5964 4.82258 8.5914 4.88758C8.5914 4.88258 8.6014 4.81758 8.6064 4.81758C8.5914 4.85758 8.5764 4.89758 8.5614 4.93257C8.4764 5.03258 8.4564 5.05757 8.4964 5.01757C8.5214 4.99257 8.5114 5.00258 8.4614 5.04258C8.4314 5.07258 8.3964 5.09258 8.35641 5.10258C8.2314 5.15258 8.33641 5.11757 8.36641 5.11258C8.3014 5.12257 8.2314 5.13258 8.16641 5.13758C8.19141 5.13258 8.2164 5.13258 8.2414 5.13758C8.1764 5.12757 8.1064 5.11758 8.0414 5.11258C8.0464 5.11258 8.1114 5.12258 8.1114 5.12758C8.0714 5.11258 8.0314 5.09758 7.99641 5.08258C7.8964 4.99758 7.8714 4.97758 7.91141 5.01757C7.93641 5.04257 7.92641 5.03257 7.88641 4.98258C7.85641 4.95258 7.83641 4.91757 7.82641 4.87758C7.77641 4.75258 7.81141 4.85758 7.81641 4.88758C7.8064 4.82258 7.79641 4.75257 7.79141 4.68758C7.78641 4.70258 7.79141 4.71258 7.79141 4.72758C7.81141 5.11758 8.12141 5.49758 8.5414 5.47758C8.9314 5.46258 9.31641 5.14757 9.2914 4.72758C9.2764 4.43758 9.1814 4.16758 8.9714 3.96258C8.7714 3.76258 8.4914 3.64258 8.2064 3.64258C7.6064 3.64258 7.13641 4.13758 7.12142 4.72756C7.10642 5.31256 7.61642 5.79755 8.18638 5.80751C8.46638 5.81252 8.76138 5.70252 8.95638 5.50252C9.17138 5.28751 9.27138 5.02252 9.28638 4.72252C9.30638 4.33252 8.92638 3.95752 8.53638 3.97253C8.11638 3.99253 7.81138 4.30753 7.79139 4.72752L7.79141 4.72758Z" fill="#0C446A"/>
<path d="M25.0606 13.9068C24.2506 15.5569 23.4406 17.2069 22.6306 18.8618C21.3506 21.4718 20.0706 24.0868 18.7906 26.6968C18.4956 27.2968 18.2056 27.8918 17.9106 28.4918C17.7306 28.8568 17.8106 29.3018 18.1806 29.5168C18.5106 29.7118 19.0256 29.6118 19.2056 29.2468C20.0156 27.5968 20.8256 25.9468 21.6356 24.2918C22.9156 21.6818 24.1956 19.0669 25.4756 16.4569C25.7706 15.8569 26.0606 15.2619 26.3556 14.6619C26.5356 14.2969 26.4556 13.8519 26.0856 13.6368C25.7556 13.4418 25.2356 13.5418 25.0606 13.9068Z" fill="#0C446A"/>
<path d="M16.051 25.9973C14.801 24.5523 13.556 23.1074 12.306 21.6674C12.126 21.4624 11.951 21.2574 11.771 21.0524V22.1124C13.021 20.6674 14.266 19.2224 15.516 17.7824C15.696 17.5774 15.871 17.3724 16.051 17.1674C16.316 16.8624 16.351 16.4074 16.051 16.1074C15.781 15.8374 15.256 15.7974 14.991 16.1074C13.741 17.5524 12.496 18.9974 11.246 20.4374C11.066 20.6424 10.891 20.8474 10.711 21.0524C10.431 21.3774 10.431 21.7874 10.711 22.1124C11.961 23.5574 13.206 25.0024 14.456 26.4424C14.636 26.6474 14.811 26.8524 14.991 27.0574C15.256 27.3624 15.781 27.3274 16.051 27.0574C16.356 26.7524 16.316 26.3024 16.051 25.9973Z" fill="#0C446A"/>
<path d="M29.2701 27.0571C30.5201 25.6121 31.7651 24.1672 33.0151 22.7272C33.1951 22.5222 33.3701 22.3172 33.5501 22.1122C33.8301 21.7872 33.8301 21.3772 33.5501 21.0521C32.3001 19.6071 31.0551 18.1622 29.8051 16.7222C29.6251 16.5172 29.4501 16.3122 29.2701 16.1072C29.0051 15.8022 28.4801 15.8372 28.2101 16.1072C27.9051 16.4122 27.9451 16.8622 28.2101 17.1672C29.4601 18.6122 30.7051 20.0572 31.9551 21.4972C32.1351 21.7022 32.3101 21.9072 32.4901 22.1122V21.0521C31.2401 22.4972 29.9951 23.9421 28.7451 25.3821C28.5651 25.5871 28.3901 25.7921 28.2101 25.9971C27.9451 26.3021 27.9101 26.7571 28.2101 27.0571C28.4801 27.3271 29.0051 27.3621 29.2701 27.0571Z" fill="#0C446A"/>
</svg>
