<svg width="44" height="44" viewBox="0 0 44 44" fill="none" xmlns="http://www.w3.org/2000/svg">
<path d="M26.1107 17.3407C26.1107 17.4557 26.1057 17.5707 26.0957 17.6907C26.0907 17.7457 26.0857 17.8057 26.0807 17.8607C26.0657 17.9907 26.1157 17.6857 26.0757 17.8957C26.0357 18.1157 25.9857 18.3357 25.9207 18.5507C25.8857 18.6557 25.8507 18.7607 25.8057 18.8607C25.8607 18.7157 25.7407 18.9957 25.7157 19.0407C25.6107 19.2457 25.4907 19.4357 25.3607 19.6307C25.3407 19.6607 25.2507 19.7757 25.3407 19.6607C25.3157 19.6957 25.2857 19.7307 25.2607 19.7607C25.1907 19.8457 25.1207 19.9257 25.0457 20.0057C24.9707 20.0857 24.8907 20.1607 24.8107 20.2307C24.7807 20.2607 24.7457 20.2907 24.7107 20.3157C24.6907 20.3307 24.5207 20.4707 24.5857 20.4207C24.6707 20.3557 24.5007 20.4807 24.5057 20.4757C24.4707 20.5007 24.4357 20.5257 24.3957 20.5507C24.3057 20.6107 24.2107 20.6657 24.1157 20.7207C24.0207 20.7757 23.9207 20.8257 23.8257 20.8707C23.8307 20.8707 23.6307 20.9557 23.7357 20.9107C23.8107 20.8807 23.6007 20.9607 23.5757 20.9707C23.3857 21.0357 23.1907 21.0907 22.9957 21.1307C22.9307 21.1457 22.8607 21.1557 22.7957 21.1657C22.7657 21.1707 22.6507 21.1857 22.7907 21.1657C22.6557 21.1807 22.5157 21.1907 22.3757 21.1957C22.1657 21.2007 21.9607 21.1907 21.7507 21.1707C21.5307 21.1507 21.8957 21.2007 21.6807 21.1607C21.6357 21.1507 21.5907 21.1457 21.5457 21.1357C21.4157 21.1107 21.2807 21.0807 21.1557 21.0407C21.0607 21.0107 20.9657 20.9807 20.8707 20.9457C20.8207 20.9257 20.7657 20.9057 20.7157 20.8857C20.8507 20.9407 20.7157 20.8857 20.6807 20.8707C20.4757 20.7707 20.2707 20.6607 20.0807 20.5357C20.0407 20.5107 19.7957 20.3307 19.9157 20.4257C19.8407 20.3657 19.7657 20.3007 19.6907 20.2357C19.5207 20.0857 19.3607 19.9207 19.2157 19.7457C19.1857 19.7107 19.1607 19.6807 19.1357 19.6457C19.2357 19.7757 19.1107 19.6057 19.0957 19.5857C19.0407 19.5057 18.9857 19.4207 18.9357 19.3407C18.8857 19.2557 18.8357 19.1707 18.7907 19.0857C18.7607 19.0257 18.7307 18.9707 18.7007 18.9107C18.6857 18.8807 18.6107 18.7007 18.6707 18.8457C18.5907 18.6407 18.5207 18.4257 18.4657 18.2107C18.4407 18.1107 18.4207 18.0107 18.4057 17.9107C18.4007 17.8707 18.3807 17.7207 18.3957 17.8757C18.3857 17.8057 18.3807 17.7407 18.3757 17.6707C18.3607 17.4407 18.3607 17.2057 18.3757 16.9757C18.3807 16.9307 18.3857 16.8857 18.3857 16.8407C18.4057 16.6207 18.3707 16.9357 18.3907 16.8007C18.4107 16.6757 18.4357 16.5557 18.4607 16.4357C18.5107 16.2207 18.5807 16.0057 18.6657 15.8007C18.6157 15.9307 18.6557 15.8207 18.6657 15.7957C18.6957 15.7357 18.7207 15.6757 18.7507 15.6157C18.8007 15.5157 18.8507 15.4207 18.9107 15.3307C18.9657 15.2357 19.0257 15.1457 19.0907 15.0557C19.0857 15.0607 19.2157 14.8857 19.1457 14.9757C19.0807 15.0607 19.2107 14.8957 19.2107 14.9007C19.3507 14.7357 19.5007 14.5757 19.6607 14.4307C19.7407 14.3557 19.8257 14.2857 19.9107 14.2207C19.7957 14.3107 19.9107 14.2207 19.9407 14.2007C19.9857 14.1707 20.0307 14.1407 20.0758 14.1107C20.2607 13.9907 20.4508 13.8857 20.6458 13.7907C20.6658 13.7807 20.8657 13.7007 20.7108 13.7607C20.7508 13.7457 20.7908 13.7307 20.8358 13.7107C20.9407 13.6707 21.0458 13.6357 21.1508 13.6057C21.2607 13.5757 21.3658 13.5457 21.4758 13.5257C21.5208 13.5157 21.5658 13.5057 21.6108 13.5007C21.6558 13.4907 21.7008 13.4857 21.7458 13.4807C21.6708 13.4907 21.6608 13.4907 21.7158 13.4857C21.9358 13.4607 22.1558 13.4507 22.3758 13.4607C22.4908 13.4657 22.6058 13.4757 22.7208 13.4857C22.8708 13.5007 22.7558 13.4907 22.7258 13.4857C22.8058 13.4957 22.8808 13.5107 22.9608 13.5257C23.2158 13.5757 23.4558 13.6557 23.7008 13.7407C23.7258 13.7507 23.8358 13.7957 23.7058 13.7407C23.7758 13.7707 23.8458 13.8057 23.9158 13.8357C24.0258 13.8907 24.1308 13.9457 24.2308 14.0107C24.3458 14.0757 24.4508 14.1507 24.5608 14.2257C24.5808 14.2407 24.6758 14.3107 24.5658 14.2257C24.6158 14.2657 24.6658 14.3057 24.7158 14.3507C24.9058 14.5107 25.0808 14.6907 25.2408 14.8807C25.2758 14.9207 25.3108 14.9657 25.3458 15.0057C25.2458 14.8757 25.3758 15.0507 25.3858 15.0657C25.4608 15.1707 25.5308 15.2857 25.5958 15.3957C25.6508 15.4907 25.7008 15.5857 25.7508 15.6857C25.7808 15.7457 25.8058 15.8057 25.8358 15.8657C25.7708 15.7157 25.8558 15.9157 25.8608 15.9307C25.9458 16.1607 26.0108 16.4007 26.0608 16.6407C26.0758 16.7057 26.0858 16.7757 26.0958 16.8407C26.0758 16.7057 26.0958 16.8657 26.1008 16.9157C26.1058 17.0657 26.1108 17.2007 26.1108 17.3407C26.1158 17.7307 26.4558 18.1107 26.8608 18.0907C27.2658 18.0707 27.6158 17.7607 27.6108 17.3407C27.5958 15.0707 26.1608 13.0657 24.0357 12.2807C21.9707 11.5207 19.4957 12.1957 18.1157 13.9057C16.7007 15.6557 16.4557 18.1357 17.6257 20.0906C18.8008 22.0507 21.1007 23.0356 23.3307 22.6006C25.8056 22.1156 27.5956 19.8356 27.6106 17.3406C27.6156 16.9506 27.2656 16.5706 26.8606 16.5906C26.4506 16.6106 26.1156 16.9206 26.1106 17.3406L26.1107 17.3407Z" fill="#0C446A"/>
<path d="M23.6561 21.2156C22.6211 21.2156 21.5811 21.1756 20.546 21.2206C18.401 21.3206 16.4261 22.4456 15.236 24.2306C14.626 25.1406 14.2811 26.1956 14.1711 27.2756C14.1061 27.8956 14.1311 28.5356 14.1411 29.1606C14.1511 29.9506 14.7111 30.5006 15.4961 30.5107H16.2811H23.976H27.686H28.7611C29.1111 30.5107 29.4361 30.5107 29.751 30.3157C30.516 29.8407 30.346 28.8206 30.346 28.0507C30.346 27.1407 30.201 26.2357 29.851 25.3907C29.041 23.4357 27.351 21.9257 25.2811 21.4107C24.7511 21.2857 24.2011 21.2207 23.6561 21.2157C23.2661 21.2157 22.8861 21.5607 22.9061 21.9657C22.9261 22.3757 23.2361 22.7157 23.6561 22.7157C23.8861 22.7157 24.1161 22.7307 24.3461 22.7557C24.5711 22.7807 24.1961 22.7257 24.4161 22.7657C24.4711 22.7757 24.5261 22.7857 24.5811 22.7957C24.7011 22.8207 24.8211 22.8457 24.9411 22.8757C25.1561 22.9307 25.3661 23.0007 25.5761 23.0807C25.5961 23.0857 25.7961 23.1757 25.6411 23.1057C25.6811 23.1257 25.7211 23.1407 25.7611 23.1607C25.8811 23.2157 25.9961 23.2757 26.1111 23.3407C26.3011 23.4457 26.4861 23.5607 26.6661 23.6857C26.7211 23.7207 26.7711 23.7607 26.8261 23.8007C26.7161 23.7207 26.8061 23.7857 26.8311 23.8057C26.9311 23.8907 27.0311 23.9707 27.1261 24.0607C27.2861 24.2057 27.4361 24.3607 27.5811 24.5257C27.6511 24.6057 27.7211 24.6907 27.7911 24.7757C27.6911 24.6457 27.8211 24.8157 27.8311 24.8307C27.8711 24.8857 27.9061 24.9357 27.9411 24.9907C28.0611 25.1707 28.1761 25.3607 28.2761 25.5557C28.3261 25.6557 28.3711 25.7507 28.4211 25.8507C28.5161 26.0457 28.3711 25.7107 28.4461 25.9157C28.4711 25.9757 28.4961 26.0407 28.5161 26.1007C28.5911 26.3107 28.6561 26.5257 28.7061 26.7407C28.7311 26.8507 28.7561 26.9607 28.7761 27.0707C28.7811 27.0907 28.8111 27.3157 28.7911 27.1407C28.8011 27.2107 28.8061 27.2757 28.8161 27.3457C28.8711 27.9357 28.8411 28.5407 28.8411 29.1357C28.8411 29.3157 28.8561 29.1557 28.9311 29.0557C28.8061 29.2257 29.0461 28.9157 29.0711 29.0107H29.0611C29.0261 28.9907 28.9261 29.0107 28.8911 29.0107H28.0161H24.7611H17.061H15.906H15.566C15.536 29.0107 15.441 28.9957 15.416 29.0107H15.411C15.446 28.9757 15.541 29.0557 15.571 29.0757C15.581 29.0857 15.586 29.0907 15.596 29.1007L15.601 29.1057C15.666 29.3207 15.641 29.2007 15.641 29.0757V28.1407C15.641 27.8307 15.646 27.5207 15.681 27.2106C15.696 27.0606 15.686 27.1756 15.681 27.2056C15.691 27.1406 15.701 27.0706 15.716 27.0056C15.736 26.8956 15.761 26.7856 15.786 26.6756C15.846 26.4356 15.916 26.2056 16.006 25.9756C16.021 25.9356 16.036 25.8956 16.056 25.8506C15.991 26.0056 16.076 25.8056 16.086 25.7856C16.131 25.6856 16.181 25.5856 16.231 25.4906C16.346 25.2806 16.471 25.0756 16.606 24.8756C16.631 24.8406 16.656 24.8056 16.681 24.7706C16.806 24.5956 16.586 24.8806 16.721 24.7156C16.791 24.6306 16.861 24.5506 16.931 24.4656C17.091 24.2856 17.261 24.1206 17.441 23.9606C17.521 23.8906 17.606 23.8206 17.691 23.7506C17.571 23.8456 17.821 23.6606 17.856 23.6356C18.056 23.5006 18.261 23.3756 18.476 23.2656C18.576 23.2156 18.671 23.1706 18.771 23.1206C18.796 23.1106 18.901 23.0656 18.776 23.1156C18.836 23.0906 18.901 23.0656 18.961 23.0456C19.191 22.9606 19.426 22.8906 19.666 22.8356C19.776 22.8106 19.886 22.7856 19.996 22.7656C20.041 22.7556 20.086 22.7506 20.131 22.7456C19.961 22.7756 20.181 22.7406 20.201 22.7356C20.411 22.7156 20.621 22.7056 20.826 22.7056H21.311H23.2211H23.6561C24.0461 22.7056 24.4261 22.3606 24.4061 21.9556C24.3911 21.5606 24.0761 21.2156 23.6561 21.2156L23.6561 21.2156Z" fill="#0C446A"/>
<path d="M22.9902 7.00568V2.31064V1.63064C22.9902 1.24064 22.6452 0.860635 22.2402 0.880639C21.8352 0.900644 21.4902 1.21064 21.4902 1.63064V6.32568V7.00568C21.4902 7.39567 21.8352 7.77568 22.2402 7.75567C22.6452 7.73567 22.9902 7.42567 22.9902 7.00568Z" fill="#0C446A"/>
<path d="M25.2902 3.62531L22.7703 1.10535C22.4853 0.820351 21.9953 0.820351 21.7103 1.10535L19.1903 3.62531C18.9053 3.91031 18.9053 4.40031 19.1903 4.68533C19.4753 4.97033 19.9653 4.97033 20.2503 4.68533L22.7703 2.16538H21.7103L24.2302 4.68533C24.5152 4.97033 25.0052 4.97033 25.2902 4.68533C25.5802 4.39533 25.5802 3.91033 25.2902 3.62531Z" fill="#0C446A"/>
<path d="M21.4902 37.4751V42.1702V42.8502C21.4902 43.2402 21.8352 43.6202 22.2402 43.6002C22.6452 43.5802 22.9902 43.2702 22.9902 42.8502V38.1551V37.4751C22.9902 37.0851 22.6452 36.7051 22.2402 36.7251C21.8352 36.7451 21.4902 37.0551 21.4902 37.4751V37.4751Z" fill="#0C446A"/>
<path d="M24.2312 39.7955L21.7112 42.3155H22.7713L20.2513 39.7955C19.9663 39.5105 19.4763 39.5105 19.1913 39.7955C18.9063 40.0805 18.9063 40.5705 19.1913 40.8556L21.7112 43.3755C21.9962 43.6605 22.4862 43.6605 22.7713 43.3755L25.2912 40.8556C25.5762 40.5706 25.5762 40.0806 25.2912 39.7955C25.0062 39.5105 24.5212 39.5105 24.2312 39.7955Z" fill="#0C446A"/>
<path d="M7.00568 21.4907H2.31064H1.63064C1.24064 21.4907 0.860635 21.8357 0.880639 22.2407C0.900644 22.6457 1.21064 22.9907 1.63064 22.9907H6.32568H7.00568C7.39567 22.9907 7.77568 22.6457 7.75567 22.2407C7.73567 21.8357 7.42567 21.4907 7.00568 21.4907Z" fill="#0C446A"/>
<path d="M3.62531 19.1904L1.10535 21.7104C0.820351 21.9954 0.820351 22.4854 1.10535 22.7704L3.62531 25.2903C3.91031 25.5753 4.40031 25.5753 4.68533 25.2903C4.97033 25.0053 4.97033 24.5153 4.68533 24.2303L2.16538 21.7104V22.7704L4.68533 20.2504C4.97033 19.9654 4.97033 19.4754 4.68533 19.1904C4.39533 18.9004 3.91033 18.9004 3.62531 19.1904Z" fill="#0C446A"/>
<path d="M37.4754 22.9902H42.1704H42.8504C43.2404 22.9902 43.6204 22.6452 43.6004 22.2402C43.5804 21.8352 43.2704 21.4902 42.8504 21.4902H38.1554H37.4754C37.0854 21.4902 36.7054 21.8352 36.7254 22.2402C36.7454 22.6452 37.0554 22.9902 37.4754 22.9902Z" fill="#0C446A"/>
<path d="M39.7958 20.2501L42.3157 22.77V21.71L39.7958 24.23C39.5108 24.515 39.5108 25.005 39.7958 25.29C40.0808 25.575 40.5708 25.575 40.8558 25.29L43.3758 22.77C43.6608 22.485 43.6608 21.995 43.3758 21.71L40.8558 19.1901C40.5708 18.9051 40.0808 18.9051 39.7958 19.1901C39.5108 19.4751 39.5108 19.9601 39.7958 20.2501Z" fill="#0C446A"/>
<path d="M11.9956 10.9353L8.19565 7.13538C7.91065 6.85038 7.42065 6.85038 7.13563 7.13538C6.85062 7.42038 6.85062 7.91039 7.13563 8.1954L10.9356 11.9954C11.2206 12.2804 11.7106 12.2804 11.9956 11.9954C12.2856 11.7104 12.2856 11.2254 11.9956 10.9353Z" fill="#0C446A"/>
<path d="M11.2349 6.91528H7.66992C7.26492 6.91528 6.91992 7.26028 6.91992 7.66528V11.2303C6.91992 11.6203 7.26492 12.0003 7.66992 11.9803C8.07492 11.9603 8.41992 11.6503 8.41992 11.2303V7.66528C8.16991 7.91528 7.91991 8.16529 7.66992 8.41528H11.2349C11.6249 8.41528 12.0049 8.07028 11.9849 7.66528C11.9649 7.26028 11.6549 6.91528 11.2349 6.91528Z" fill="#0C446A"/>
<path d="M32.4851 33.5455L36.285 37.3455C36.57 37.6305 37.06 37.6305 37.3451 37.3455C37.6301 37.0605 37.6301 36.5705 37.3451 36.2854L33.5451 32.4855C33.2601 32.2005 32.7701 32.2005 32.4851 32.4855C32.1951 32.7705 32.1951 33.2555 32.4851 33.5455Z" fill="#0C446A"/>
<path d="M36.0657 33.2456V36.8106C36.3157 36.5606 36.5657 36.3106 36.8157 36.0606H33.2508C32.8608 36.0606 32.4808 36.4056 32.5008 36.8106C32.5208 37.2156 32.8308 37.5606 33.2508 37.5606H36.8157C37.2207 37.5606 37.5657 37.2156 37.5657 36.8106V33.2456C37.5657 32.8556 37.2207 32.4756 36.8157 32.4956C36.4057 32.5156 36.0657 32.8256 36.0657 33.2456V33.2456Z" fill="#0C446A"/>
<path d="M10.9356 32.4851L7.13563 36.285C6.85062 36.57 6.85062 37.06 7.13563 37.3451C7.42063 37.6301 7.91063 37.6301 8.19565 37.3451L11.9956 33.5451C12.2806 33.2601 12.2806 32.7701 11.9956 32.4851C11.7106 32.1951 11.2256 32.1951 10.9356 32.4851V32.4851Z" fill="#0C446A"/>
<path d="M6.91504 33.2456V36.8106C6.91504 37.2156 7.26004 37.5606 7.66504 37.5606H11.23C11.62 37.5606 12 37.2156 11.98 36.8106C11.96 36.4056 11.65 36.0606 11.23 36.0606H7.66504C7.91504 36.3106 8.16504 36.5606 8.41503 36.8106V33.2456C8.41503 32.8556 8.07004 32.4756 7.66504 32.4956C7.26004 32.5156 6.91504 32.8256 6.91504 33.2456Z" fill="#0C446A"/>
<path d="M33.5453 11.9958L37.3452 8.19589C37.6302 7.91089 37.6302 7.42089 37.3452 7.13587C37.0602 6.85087 36.5702 6.85087 36.2852 7.13587L32.4852 10.9358C32.2002 11.2208 32.2002 11.7108 32.4852 11.9958C32.7702 12.2858 33.2552 12.2858 33.5453 11.9958Z" fill="#0C446A"/>
<path d="M33.2459 8.41552H36.8109C36.5609 8.16552 36.3108 7.91552 36.0609 7.66553V11.2305C36.0609 11.6205 36.4059 12.0005 36.8109 11.9805C37.2159 11.9605 37.5609 11.6505 37.5609 11.2305V7.66553C37.5609 7.26052 37.2159 6.91553 36.8109 6.91553H33.2459C32.8559 6.91553 32.4759 7.26052 32.4959 7.66553C32.5159 8.07553 32.8259 8.41552 33.2459 8.41552Z" fill="#0C446A"/>
</svg>
