<svg width="23" height="26" viewBox="0 0 23 26" fill="none" xmlns="http://www.w3.org/2000/svg">
<g filter="url(#filter0_d_507_1196)">
<path d="M18.1663 17.5V15.8333C18.1663 14.9493 17.8152 14.1014 17.19 13.4763C16.5649 12.8512 15.7171 12.5 14.833 12.5H8.16634C7.28229 12.5 6.43444 12.8512 5.80932 13.4763C5.1842 14.1014 4.83301 14.9493 4.83301 15.8333V17.5" stroke="#FAFEFF" stroke-linecap="round" stroke-linejoin="round"/>
<path d="M11.5003 9.16667C13.3413 9.16667 14.8337 7.67428 14.8337 5.83333C14.8337 3.99238 13.3413 2.5 11.5003 2.5C9.65938 2.5 8.16699 3.99238 8.16699 5.83333C8.16699 7.67428 9.65938 9.16667 11.5003 9.16667Z" stroke="#FAFEFF" stroke-linecap="round" stroke-linejoin="round"/>
</g>
<defs>
<filter id="filter0_d_507_1196" x="-2.5" y="0" width="28" height="28" filterUnits="userSpaceOnUse" color-interpolation-filters="sRGB">
<feFlood flood-opacity="0" result="BackgroundImageFix"/>
<feColorMatrix in="SourceAlpha" type="matrix" values="0 0 0 0 0 0 0 0 0 0 0 0 0 0 0 0 0 0 127 0" result="hardAlpha"/>
<feOffset dy="4"/>
<feGaussianBlur stdDeviation="2"/>
<feComposite in2="hardAlpha" operator="out"/>
<feColorMatrix type="matrix" values="0 0 0 0 0 0 0 0 0 0 0 0 0 0 0 0 0 0 0.25 0"/>
<feBlend mode="normal" in2="BackgroundImageFix" result="effect1_dropShadow_507_1196"/>
<feBlend mode="normal" in="SourceGraphic" in2="effect1_dropShadow_507_1196" result="shape"/>
</filter>
</defs>
</svg>
