<svg width="46" height="46" viewBox="0 0 46 46" fill="none" xmlns="http://www.w3.org/2000/svg">
<path d="M22.0761 45.2275H21.9811C16.4662 45.2025 11.2163 43.1124 7.19621 39.3425C5.98624 38.2075 4.90619 36.9375 3.99118 35.5625C1.59621 31.9825 0.326172 27.8075 0.326172 23.4774C0.326172 19.1524 1.59118 14.9725 3.99118 11.3924C4.91113 10.0174 5.99118 8.74243 7.20114 7.61238C11.2161 3.84241 16.4665 1.75235 21.976 1.73242H22.071C24.666 1.73242 27.201 2.18242 29.611 3.07743L30.8161 3.52243L29.836 4.35243C29.286 4.81742 28.791 5.35247 28.3711 5.93743C27.3011 7.42744 26.7361 9.18744 26.7361 11.0274C26.7361 11.7274 26.8311 12.4725 27.0211 13.2474C27.9111 16.8774 30.6861 20.5474 32.856 22.9873C33.106 23.2673 33.361 23.5473 33.621 23.8273C34.386 24.6423 35.046 25.2873 35.4661 25.6823C36.0261 25.1573 36.996 24.2123 38.086 22.9873C39.5811 21.3123 40.836 19.6473 41.811 18.0473L42.7461 16.5073L43.1761 18.2573C43.5961 19.9573 43.8111 21.7173 43.8111 23.4873C43.8111 27.8123 42.546 31.9873 40.146 35.5723C39.2261 36.9473 38.146 38.2173 36.941 39.3523C32.921 43.1223 27.6711 45.2124 22.1607 45.2373C22.1407 45.2273 22.1057 45.2273 22.0757 45.2273L22.0761 45.2275ZM22.0761 43.7275H22.1511H22.1611C27.2961 43.7075 32.1808 41.7575 35.9257 38.2474C37.0507 37.1924 38.0557 36.0074 38.9107 34.7274C41.1407 31.3924 42.3207 27.5074 42.3207 23.4772C42.3207 22.4372 42.2407 21.3972 42.0857 20.3721C41.2557 21.5572 40.2957 22.7671 39.2156 23.9772C37.4556 25.9522 36.0256 27.2021 35.9656 27.2572L35.4706 27.6872L34.9756 27.2522C34.9306 27.2122 33.9107 26.3122 32.5306 24.8422C32.2606 24.5522 31.9956 24.2622 31.7406 23.9722C29.4557 21.4072 26.5307 17.5222 25.5656 13.5923C25.3456 12.7023 25.2356 11.8323 25.2356 11.0173C25.2356 8.86236 25.9006 6.80229 27.1506 5.05235C27.3906 4.71735 27.6556 4.39234 27.9356 4.08732C26.0406 3.51232 24.0706 3.22232 22.0656 3.22232H21.9856H21.9756C16.8556 3.25232 11.966 5.19736 8.22019 8.70731C7.09516 9.7623 6.09018 10.9473 5.23523 12.2273C3.00519 15.5573 1.82522 19.4473 1.82522 23.4776C1.82522 27.5026 3.00519 31.3926 5.23523 34.7279C6.09023 36.0079 7.09525 37.1929 8.22019 38.2479C11.9652 41.7579 16.8502 43.7079 21.9848 43.7279H21.9948H22.0748L22.0761 43.7275Z" fill="#0C446A"/>
<path d="M22.0757 45.2274H21.9757C19.9507 45.1974 17.9707 44.2274 16.2407 42.4175C14.6307 40.7324 13.2407 38.3275 12.2257 35.4524C10.9706 31.9024 10.3057 27.7625 10.3057 23.4771C10.3057 19.1918 10.9707 15.0522 12.2257 11.5018C13.2407 8.62683 14.6307 6.2218 16.2407 4.53677C17.9656 2.73179 19.9506 1.7568 21.9757 1.72681H22.0757C24.3107 1.72681 26.4757 2.85677 28.3357 5.00178L28.7257 5.45178L28.3807 5.93178C27.3107 7.42179 26.7457 9.18179 26.7457 11.0218C26.7457 11.7218 26.8407 12.4668 27.0307 13.2418C27.9207 16.8718 30.6957 20.5418 32.8657 22.9817C33.1157 23.2617 33.3707 23.5417 33.6307 23.8217L33.8407 24.0467L33.8357 24.3516C33.7507 28.3217 33.0907 32.1617 31.9257 35.4566C30.9106 38.3315 29.5206 40.7366 27.9107 42.4216C26.1857 44.2266 24.2007 45.2016 22.1756 45.2316C22.1406 45.2266 22.1056 45.2266 22.0756 45.2266L22.0757 45.2274ZM22.0757 43.7274H22.1507C25.4607 43.6774 28.5857 40.3974 30.5107 34.9524C31.5957 31.8874 32.2207 28.3224 32.3258 24.6173C32.1258 24.4023 31.9308 24.1873 31.7458 23.9773C29.4608 21.4123 26.5358 17.5273 25.5708 13.5974C25.3508 12.7074 25.2408 11.8374 25.2408 11.0224C25.2408 9.07245 25.7808 7.19744 26.8158 5.56745C25.3458 4.03748 23.7158 3.23245 22.0758 3.23245H21.9958C18.6908 3.28245 15.5658 6.56246 13.6358 12.0075C12.4358 15.3975 11.8008 19.3625 11.8008 23.4827C11.8008 27.5977 12.4358 31.5677 13.6358 34.9579C15.5608 40.4029 18.6857 43.6829 21.9958 43.7329C22.0208 43.7279 22.0458 43.7279 22.0758 43.7279L22.0757 43.7274Z" fill="#0C446A"/>
<path d="M21.3262 2.47754H22.8261V44.4725H21.3262V2.47754Z" fill="#0C446A"/>
<path d="M38.6562 22.7278H43.0712V24.2278H38.6562V22.7278Z" fill="#0C446A"/>
<path d="M1.07617 22.7278H32.3063V24.2278H1.07617V22.7278Z" fill="#0C446A"/>
<path d="M22.0765 14.5925C18.7566 14.5925 15.5715 13.8625 12.6063 12.4274C10.6264 11.4674 8.80638 10.2174 7.19633 8.7074L6.61133 8.1624L7.19633 7.6174C11.2163 3.84241 16.4663 1.75244 21.9767 1.73242H22.0717C24.6667 1.73242 27.2016 2.18242 29.6117 3.07743L30.8167 3.52243L29.8367 4.35243C29.2867 4.81742 28.7917 5.35247 28.3717 5.93743C27.3018 7.42744 26.7367 9.18744 26.7367 11.0274C26.7367 11.7274 26.8317 12.4725 27.0217 13.2474L27.2067 14.0024L26.4417 14.1574C25.0217 14.4474 23.5467 14.5924 22.0767 14.5924L22.0765 14.5925ZM8.83125 8.16248C10.1763 9.32747 11.6612 10.3075 13.2612 11.0825C16.0213 12.4176 18.9862 13.0975 22.0762 13.0975C23.1962 13.0975 24.3112 13.0075 25.4062 12.8225C25.2962 12.2025 25.2412 11.6025 25.2412 11.0225C25.2412 8.86751 25.9062 6.80744 27.1562 5.0575C27.3962 4.72249 27.6612 4.39749 27.9412 4.09247C26.0462 3.51746 24.0763 3.22747 22.0712 3.22747H21.9912H21.9812C17.1262 3.25247 12.4864 4.99744 8.83105 8.16251L8.83125 8.16248Z" fill="#0C446A"/>
<path d="M22.0763 45.2275C16.5263 45.2275 11.2411 43.1375 7.19633 39.3425L6.61133 38.7975L7.19633 38.2525C8.80629 36.7425 10.6264 35.4925 12.6063 34.5325C15.5714 33.0975 18.7564 32.3674 22.0765 32.3674C25.3966 32.3674 28.5815 33.0974 31.5467 34.5325C33.5267 35.4925 35.3466 36.7425 36.9567 38.2525L37.5417 38.7975L36.9567 39.3425C32.9067 43.1375 27.6218 45.2275 22.0767 45.2275H22.0763ZM8.8265 38.7925C12.5065 41.9775 17.1765 43.7225 22.0718 43.7225C26.9667 43.7225 31.637 41.9775 35.317 38.7925C33.972 37.6275 32.487 36.6475 30.887 35.8724C28.127 34.5374 25.162 33.8574 22.072 33.8574C18.982 33.8574 16.017 34.5374 13.257 35.8774C11.6621 36.6525 10.1721 37.6324 8.82705 38.7925H8.8265Z" fill="#0C446A"/>
<path d="M35.4713 27.6878L34.9763 27.2528C34.9313 27.2128 33.9113 26.3128 32.5313 24.8428C32.2613 24.5528 31.9963 24.2628 31.7413 23.9728C29.4563 21.4078 26.5314 17.5228 25.5663 13.5929C25.3463 12.7029 25.2363 11.8329 25.2363 11.0179C25.2363 8.86296 25.9013 6.80289 27.1513 5.05295C27.6413 4.36795 28.2213 3.74296 28.8663 3.19795C30.7063 1.638 33.0513 0.782959 35.4713 0.782959C41.1113 0.782959 45.7067 5.37295 45.7067 11.0184C45.7067 13.3534 44.8317 15.9784 43.1017 18.8183C42.0818 20.4983 40.7718 22.2334 39.2168 23.9784C37.4568 25.9534 36.0267 27.2033 35.9668 27.2584L35.4713 27.6878ZM35.4763 2.288C33.4113 2.288 31.4113 3.018 29.8413 4.34798C29.2913 4.81298 28.7963 5.34802 28.3763 5.93298C27.3063 7.423 26.7413 9.183 26.7413 11.023C26.7413 11.723 26.8363 12.468 27.0263 13.243C27.9163 16.873 30.6913 20.543 32.8613 22.9829C33.1113 23.2629 33.3663 23.5429 33.6263 23.8229C34.3913 24.6379 35.0513 25.2829 35.4713 25.6779C36.0313 25.1529 37.0013 24.2079 38.0913 22.9828C39.5863 21.3078 40.8413 19.6428 41.8163 18.0428C43.4013 15.4428 44.2013 13.0828 44.2013 11.0229C44.2063 6.20786 40.2912 2.28786 35.4763 2.28786L35.4763 2.288Z" fill="#0C446A"/>
<path d="M35.4757 14.523C33.5457 14.523 31.9707 12.9529 31.9707 11.0179C31.9707 9.08295 33.5407 7.51294 35.4757 7.51294C37.4057 7.51294 38.9807 9.08295 38.9807 11.0179C38.9807 12.9529 37.4057 14.523 35.4757 14.523ZM35.4757 9.01795C34.3707 9.01795 33.4707 9.91795 33.4707 11.023C33.4707 12.128 34.3707 13.028 35.4757 13.028C36.5807 13.028 37.4807 12.128 37.4807 11.023C37.4757 9.91797 36.5757 9.01795 35.4757 9.01795V9.01795Z" fill="#0C446A"/>
</svg>
